<svg version="1.1" xmlns="http://www.w3.org/2000/svg" xmlns:xlink="http://www.w3.org/1999/xlink" width="132.30174" height="161.10504" viewBox="0,0,132.30174,161.10504"><g transform="translate(-200.61455,-94.12446)"><g data-paper-data="{&quot;isPaintingLayer&quot;:true}" fill-rule="nonzero" stroke="none" stroke-width="0.5" stroke-linecap="butt" stroke-linejoin="miter" stroke-miterlimit="10" stroke-dasharray="" stroke-dashoffset="0" style="mix-blend-mode: normal"><path d="M220.49865,255.22951c-2.5,0 -2.5,-2.5 -2.5,-2.5v-1.70624c0,-12.56104 -0.68249,-25.00811 -0.68249,-37.53721c0,0 0,-0.14449 0.03474,-0.36399c-3.18637,-4.07433 -5.47598,-8.11843 -6.69829,-12.63574c-0.02831,1.70226 -0.10062,3.3991 -0.29503,5.08259c-0.31505,2.72826 -1.35006,5.47219 -1.35006,8.25839c0,1.78257 0.56649,3.52551 0.67766,5.30461c0.22857,3.65784 0.00483,7.40943 0.00483,11.07526v1.36499c0,0 0,2.5 -2.5,2.5c-2.5,0 -2.5,-2.5 -2.5,-2.5v-1.36499c0,-3.5618 0.227,-7.21077 0.00483,-10.76457c-0.06308,-1.00912 -0.68733,-4.75678 -0.68733,-5.6153c0,-2.99362 1.02823,-5.8772 1.37992,-8.80398c0.65015,-5.41057 0.01661,-10.98171 0.68687,-16.41717c0,0 0.31009,-2.48069 2.79078,-2.17061c0.27042,0.0338 0.50767,0.0934 0.71578,0.17276c1.0371,-5.12185 3.59034,-10.29196 7.00517,-14.14319c-1.63916,-0.67554 -3.24674,-1.46239 -4.72889,-2.39213c-0.64044,-0.85904 -1.41562,-1.61173 -2.29422,-2.22678c-0.35061,-0.55697 -0.75465,-1.07693 -1.20491,-1.55268c-0.16047,-0.33945 -0.33949,-0.66841 -0.53574,-0.98558c-0.25974,-0.89665 -0.6416,-1.74141 -1.12641,-2.51508c-0.09678,-1.94183 -0.74745,-3.73781 -1.79727,-5.23319c-0.19697,-0.78206 -0.48605,-1.52751 -0.85505,-2.22413c-0.12936,-1.17029 -0.46067,-2.27972 -0.9583,-3.29266c-0.21722,-1.83471 -0.76745,-3.42324 -1.47429,-4.93316c-0.0303,-0.63584 -0.11999,-1.25612 -0.26364,-1.85542c-0.01189,-0.82621 -0.12397,-1.62819 -0.32464,-2.39429c0.03412,-0.33608 0.0516,-0.67709 0.0516,-1.02218c0,-0.89225 -0.11685,-1.7572 -0.3361,-2.5804c0.04096,-0.36764 0.062,-0.74128 0.062,-1.11985c0,-0.65938 -0.06382,-1.30387 -0.18562,-1.92759c0.29867,-0.9488 0.45971,-1.95863 0.45971,-3.00607c0,-0.41144 -0.02485,-0.81708 -0.07312,-1.2155c0.22641,-0.83558 0.34721,-1.71458 0.34721,-2.6218c0,-0.43312 -0.02754,-0.85982 -0.08095,-1.27843c0.31939,-0.97801 0.4921,-2.02236 0.4921,-3.10704c0,-0.49081 -0.03537,-0.97338 -0.10368,-1.44527c1.04432,-2.38348 2.32822,-4.67408 2.96042,-7.24399c0.22189,-0.90199 0.37731,-1.82804 0.51498,-2.76228c0.76321,-0.85918 1.38062,-1.85077 1.81342,-2.936c1.05764,-1.254 1.81247,-2.77174 2.15174,-4.44047c0.25437,-0.27417 0.49355,-0.56264 0.71619,-0.86405c0.88978,-0.56369 1.68446,-1.264 2.35453,-2.07142c1.05842,-0.67489 1.98134,-1.54346 2.71883,-2.55578c0.04361,-0.02545 0.08653,-0.05197 0.12871,-0.07952c1.44222,-0.57869 3.31279,-1.60173 4.96507,-2.78221c1.67372,-0.10972 3.89084,-0.30662 5.06008,-0.72032c0.29701,0.09846 0.6146,0.15175 0.94465,0.15175c0.38712,0 0.75711,-0.07332 1.09686,-0.20685c1.96252,0.59252 4.85944,1.34167 7.24353,1.8617c0.05485,0.05211 0.1156,0.09805 0.18115,0.13674c0.09633,0.16858 0.47056,0.33774 0.88021,0.4991c0.43913,0.45392 1.18308,0.9106 1.98948,1.2797c0.44521,0.4451 0.91452,0.91653 1.26292,1.1488c0.62594,0.41729 1.15693,0.19688 1.55967,-0.352c0.28198,0.00659 0.50961,-0.03243 0.65638,-0.12695c0.33153,-0.2135 0.60783,-0.46102 0.82769,-0.72649c0.57297,-0.26711 1.19418,-0.6389 1.74061,-1.04215c0.45229,0.22659 1.77152,-0.26946 3.11604,-1.12501c1.03693,-0.25413 2.4061,-0.70078 2.7901,-0.70193c0.68795,-0.00204 1.27864,0.0127 1.87341,0.06003c0.60464,0.23414 1.94251,0.2344 3.13121,-0.00049c0.29293,0.16035 0.61556,0.27325 0.95751,0.32834c0.14435,0.08134 0.31094,0.12787 0.48838,0.12819c0.68644,0.16921 1.84521,0.43807 1.99652,0.49877c1.18318,0.47464 2.34683,0.96743 3.48595,1.51926c0.0007,0.0008 0.00139,0.00161 0.00207,0.00241c0.1139,0.13287 0.23186,0.26745 0.35352,0.40349c0.0517,0.01035 0.10366,0.02161 0.15591,0.03383c1.45664,0.34069 3.84028,3.43101 4.8164,4.5395c2.06342,2.34322 6.54603,7.31546 6.47674,11.03729c1.26387,1.65879 2.08906,3.7535 2.04424,5.79058c0.12219,0.27356 0.28154,0.57405 0.43186,0.85735c-0.0484,0.21389 -0.07396,0.43644 -0.07396,0.66496c0,0.56415 0.15572,1.09192 0.42652,1.54269c-0.12828,3.06443 0.82261,7.32342 0.94394,9.96918c0.01726,0.37631 0.19237,0.72863 0.27409,1.09637c0.00119,0.00539 0.00196,0.01082 0.00239,0.01629c-0.00055,0.01391 -0.00101,0.02785 -0.00137,0.04181c-0.0027,0.02658 -0.00686,0.05332 -0.00102,0.07895c0.02004,0.08795 0.04474,0.17404 0.07374,0.25832c-0.13403,0.68174 -0.2895,1.35788 -0.46646,2.03473c2.97675,0.20234 6.12056,1.17623 8.84148,1.17638c0.73165,0.00004 1.5358,0.13334 2.37377,0.32707c0.82491,0.00802 1.6781,0.04414 2.53527,0.05698c0.83462,0.01252 4.63625,0.07077 5.12948,0.93392h0.86552c0.28543,0.07136 0.58059,0.16554 0.87986,0.28097c6.39216,0.03397 17.67281,3.60333 22.3929,5.6678c1.46761,0.6419 2.9271,1.46695 4.21855,2.46474c0.48753,0.12635 1.00408,0.2925 1.56842,0.52724c1.22258,0.50856 2.33617,1.28341 3.34911,2.13622c1.34035,1.12847 3.17335,2.08666 3.66438,3.76859c0.9547,3.27018 -0.00253,6.09986 -1.76878,8.49862c-0.43922,1.00751 -1.0292,1.99263 -1.7454,2.89981c-4.64598,5.88484 -14.51799,8.29812 -21.36331,10.57882l-0.21549,0.07181c-3.3316,0.25596 -6.88056,2.63779 -10.2633,1.7921c-0.12766,-0.03191 -0.25284,-0.06628 -0.37552,-0.103c-1.18921,0.22031 -2.45369,0.40374 -3.80755,0.64196c-2.53715,0.44643 -5.44353,0.71181 -8.38945,0.66455c-1.30617,0.14035 -2.61824,0.25786 -3.93288,0.35106c-4.15671,1.47357 -10.1872,0.80385 -14.11677,0.60737c-0.23827,-0.01191 -0.58628,-0.01992 -1.00844,-0.02968c0.90042,8.01668 1.50476,15.29345 -0.85975,21.81199c0.75232,0.83545 0.60125,2.04402 0.60125,2.04402c-1.01979,8.03677 -0.32194,16.49798 -0.32194,24.60097v0.68249c0,0 0,2.5 -2.5,2.5c-2.5,0 -2.5,-2.5 -2.5,-2.5v-0.68249c0,-6.16042 -0.36044,-12.49277 -0.13485,-18.7168c-0.9526,1.03818 -2.03382,2.05238 -3.25846,3.0425c-1.51904,1.22815 -3.07491,3.24256 -4.77883,4.50602c-0.42948,3.18332 -1.03108,6.48042 -0.82384,9.64794c0.49234,7.52516 1.36982,14.75584 1.36982,22.33642v0.68249c0,0 0,2.5 -2.5,2.5c-2.5,0 -2.5,-2.5 -2.5,-2.5v-0.68249c0,-7.47859 -0.91452,-14.60264 -1.36016,-22.02573c-0.16907,-2.81625 0.1973,-5.68417 0.58192,-8.51896c-1.25984,0.1087 -2.54143,0.16869 -3.83175,0.17451c-1.56392,0.49709 -3.16541,0.93304 -4.58028,1.03631l0.00003,0.00005c-3.1846,0.23244 -13.43623,-2.9365 -15.4194,-5.0251c-0.10725,-0.11295 -0.24571,-0.20195 -0.40574,-0.27543c0.09839,11.43596 0.66811,22.81682 0.66811,34.29311v1.70624c0,0 0,2.5 -2.5,2.5z" fill-opacity="0.49995" fill="#ff0000"/><path d="" fill-opacity="0.42737" fill="#9966ff"/><path d="M264.00746,94.12447c0.34256,0.04988 0.67757,0.13419 1.0025,0.26439c-0.33711,-0.0891 -0.67521,-0.17163 -1.0025,-0.26439z" fill-opacity="0.42737" fill="#9966ff"/><path d="M214.73654,129.86746c0.42955,-0.01215 0.8473,0.05938 1.24714,0.25801c4.42435,2.19785 1.14489,11.72949 -3.00189,12.12905c-5.65439,0.54483 -6.90114,-7.09971 -4.86811,-10.5827c0.66286,-1.13561 2.05545,-1.64047 3.08318,-2.4607c0,0 2.03433,-1.4531 3.48743,0.58124c0.01794,0.02512 0.03536,0.05016 0.05225,0.0751z" fill-opacity="0.49995" fill="#0008ff"/><path d="M268.06694,130.15364c0.26067,-0.02398 0.52156,0.0128 0.78275,0.13131c3.15695,1.43238 2.25629,10.83165 -0.56518,12.26128c-4.64657,2.3544 -6.54154,-0.31294 -7.57889,-3.97317c-1.03651,-3.65725 0.77858,-6.93994 2.91712,-9.61057c0,0 1.60046,-1.92055 3.52101,-0.32009c0.59427,0.49523 0.85142,1.0211 0.92318,1.51124z" fill-opacity="0.49995" fill="#0008ff"/><path d="M331.17406,161.61647c0,2.5 -2.5,2.5 -2.5,2.5h-2.72998c-5.78313,-0.01085 -10.78949,3.01672 -16.397,3.07117c-4.89299,0.04751 -10.00871,-1.53346 -14.77431,-2.43118c-4.65535,-0.87695 -9.05308,-0.64482 -13.718,-0.64482c-1.76659,0.21123 -3.4185,1.01287 -5.16924,1.3297c-2.74341,0.49648 -6.89205,0.38625 -9.67348,0.38133c-6.81509,-0.01206 -13.65536,-2.06324 -20.44398,-2.04751c-5.57944,0.01293 -11.06314,0.27915 -16.47315,1.63165c0,0 -2.42536,0.60634 -3.0317,-1.81902c-0.60634,-2.42536 1.81902,-3.0317 1.81902,-3.0317c5.78478,-1.44619 11.68968,-1.79266 17.65158,-1.78082c6.82377,0.01355 13.66606,2.06117 20.5057,2.04746c2.53759,-0.00508 6.2636,0.18602 8.75388,-0.30117c1.9362,-0.37879 3.79397,-1.14803 5.75068,-1.40027c5.07085,0 9.89013,-0.22374 14.94678,0.72017c4.51556,0.84291 9.26035,2.28415 13.89046,2.34628c1.60182,0.02149 3.12475,-0.72827 4.64472,-1.23423c3.82202,-1.27225 7.71134,-1.83035 11.71803,-1.83706h2.72998c0,0 2.5,0 2.5,2.5z" fill-opacity="0.49995" fill="#0008ff"/></g></g></svg>