<svg version="1.1" xmlns="http://www.w3.org/2000/svg" xmlns:xlink="http://www.w3.org/1999/xlink" width="438.5" height="239.5" viewBox="0,0,438.5,239.5"><g transform="translate(-20.75,-60.25)"><g data-paper-data="{&quot;isPaintingLayer&quot;:true}" fill-rule="nonzero" stroke-linecap="butt" stroke-linejoin="miter" stroke-miterlimit="10" stroke-dasharray="" stroke-dashoffset="0" style="mix-blend-mode: normal"><path d="M210.5,172.50001c0,-1.38071 1.11929,-2.5 2.5,-2.5c1.38071,0 2.5,1.11929 2.5,2.5c0,1.38071 -1.11929,2.5 -2.5,2.5c-1.38071,0 -2.5,-1.11929 -2.5,-2.5z" fill="#969696" stroke="none" stroke-width="0.5"/><path d="M22,298.5v-237h235v237z" fill="#a26600" stroke="#000202" stroke-width="2.5"/><path d="M22,298.5v-237h235v237z" fill="#a26600" stroke="#000202" stroke-width="2.5"/><path d="M22,298.5v-237h235v237z" fill="#a26600" stroke="#000202" stroke-width="2.5"/><path d="M22,298.5v-237h235v237z" fill="#a26600" stroke="#000202" stroke-width="2.5"/><path d="M332,298.5v-237h95v237z" fill="#a26600" stroke="#000202" stroke-width="2.5"/><path d="M301,298.5v-237h157v237z" fill="#a26600" stroke="#000202" stroke-width="2.5"/><path d="M301,298.5v-237h157v237z" fill="#a26600" stroke="#000202" stroke-width="2.5"/></g></g></svg>